<svg width="39" height="43" viewBox="0 0 39 43" fill="none" xmlns="http://www.w3.org/2000/svg">
<path d="M13.9916 33.6157L29.7769 30.4484L29.1868 27.507L13.4014 30.6744L13.9916 33.6157ZM12.3194 25.2818L28.1048 22.1145L27.5146 19.1731L11.7292 22.3405L12.3194 25.2818ZM10.8105 42.9234C10.0261 43.0808 9.28078 42.9244 8.57447 42.4541C7.86816 41.9839 7.43631 41.3566 7.27893 40.5722L0.590183 7.23666C0.432801 6.4523 0.589229 5.70696 1.05947 5.00065C1.52971 4.29433 2.15701 3.86249 2.94137 3.7051L20.6386 0.154169L33.5288 8.73602L38.6536 34.277C38.811 35.0613 38.6545 35.8067 38.1843 36.513C37.7141 37.2193 37.0868 37.6511 36.3024 37.8085L10.8105 42.9234ZM21.5877 12.5089L19.7581 3.39063L3.53156 6.64648L10.2203 39.9821L35.7122 34.8671L30.853 10.6498L21.5877 12.5089Z" fill="black"/>
</svg>
